<svg xmlns="http://www.w3.org/2000/svg" viewBox="0 0 32 32">
  <!-- CPU Chip Background -->
  <rect x="8" y="8" width="16" height="16" rx="2" fill="#4F46E5" stroke="#312E81" stroke-width="0.5"/>
  
  <!-- Inner chip detail -->
  <rect x="10" y="10" width="12" height="12" rx="1" fill="#6366F1" stroke="#4F46E5" stroke-width="0.5"/>
  
  <!-- Core grid pattern -->
  <line x1="16" y1="10" x2="16" y2="22" stroke="#4F46E5" stroke-width="0.5"/>
  <line x1="10" y1="16" x2="22" y2="16" stroke="#4F46E5" stroke-width="0.5"/>
  
  <!-- CPU Pins - Left -->
  <rect x="4" y="11" width="4" height="1.5" fill="#4F46E5"/>
  <rect x="4" y="15" width="4" height="1.5" fill="#4F46E5"/>
  <rect x="4" y="19" width="4" height="1.5" fill="#4F46E5"/>
  
  <!-- CPU Pins - Right -->
  <rect x="24" y="11" width="4" height="1.5" fill="#4F46E5"/>
  <rect x="24" y="15" width="4" height="1.5" fill="#4F46E5"/>
  <rect x="24" y="19" width="4" height="1.5" fill="#4F46E5"/>
  
  <!-- CPU Pins - Top -->
  <rect x="11" y="4" width="1.5" height="4" fill="#4F46E5"/>
  <rect x="15" y="4" width="1.5" height="4" fill="#4F46E5"/>
  <rect x="19" y="4" width="1.5" height="4" fill="#4F46E5"/>
  
  <!-- CPU Pins - Bottom -->
  <rect x="11" y="24" width="1.5" height="4" fill="#4F46E5"/>
  <rect x="15" y="24" width="1.5" height="4" fill="#4F46E5"/>
  <rect x="19" y="24" width="1.5" height="4" fill="#4F46E5"/>
</svg>
